<?xml version="1.0" encoding="utf-8"?>
<!-- Generator: Adobe Illustrator 22.0.1, SVG Export Plug-In . SVG Version: 6.00 Build 0)  -->
<svg version="1.1" id="Capa_1" xmlns="http://www.w3.org/2000/svg" xmlns:xlink="http://www.w3.org/1999/xlink" x="0px" y="0px"
	 viewBox="0 0 927.7 344" style="enable-background:new 0 0 927.7 344;" xml:space="preserve">
<style type="text/css">
	.st0{fill:#8BC1D9;}
	.st1{fill:none;stroke:#435260;stroke-width:5;stroke-linecap:round;stroke-linejoin:round;stroke-miterlimit:10;}
	.st2{fill:#FF8500;}
	.st3{fill:#8BC1D9;stroke:#8BC1D9;stroke-miterlimit:10;}
	.st4{fill:#4F7EC2;stroke:#4F7EC2;stroke-miterlimit:10;}
</style>
<g>
	<g>
		<g>
			<path class="st0" d="M277.3,275.8c0,0,34-8.7,41-17.5c7-8.7,29.7-29.7,30.5-49.7c0.9-20.1,2.6-27.9,14-45.4s14.8-30.5,2.6-27.9
				c-12.2,2.6-26.2,10.5-32.3,34.9s-24.4,5.2-27.1,0c-2.6-5.2-33.2-75-40.1-99.5c-7-24.4-18.3-21.8-20.9-19.2
				c-2.6,2.6-6.5,9.2,3.1,31c0,0,7.9,25.3,12.2,38.4c4.4,13.1,5.2,21.8-3.5,20.1c-8.7-1.7-14-22.7-23.6-41S206.6,50.4,194,54.6
				c-7.9,2.6,10.3,25.3,16.6,41c8.7,21.8,14.5,33.6,20.1,46.2c6.1,14,4.4,20.1-2.6,11.3s-23.6-34-33.2-49.7S174.8,79,166.9,85.1
				c-7.9,6.1,8.7,20.9,13.1,28.8c4.4,7.9,20.9,40.1,26.2,46.2c5.2,6.1,7.9,16.6,1.7,14.8c-6.1-1.7-41-27.1-48.9-33.2
				c-7.9-6.1-18.3-10.5-16.6,0c1.7,10.5,16.6,20.9,30.5,30.5s25.3,20.9,35.8,43.6C219.3,238.7,227.2,281.5,277.3,275.8z"/>
		</g>
		<path class="st1" d="M269,166.3c0,0-20.9,46.2,0,78.5s33.2,15.7,36.6,13.1c3.5-2.6,29.7-21.8,32.3-41c2.6-19.2,0.9-30.5,8.7-42.8
			c7.9-12.2,20.1-31.4,14-41s-30.5,10.5-34.9,28.8c-4.4,18.3-14.8,23.6-24.4,16.6c-9.6-7-35.8-83.8-41.9-102.1S242,43.2,235,49.3
			c-7,6.1,0.9,26.2,7,46.2s14.8,44.5,6.1,44.5s-28.8-53.2-39.3-68.9c-10.5-15.7-24.4-21.8-26.2-14.8s0.9,14,18.3,42.8
			s22.7,52.4,19.2,54.1c-3.5,1.7-41-66.3-51.5-68.1c-10.5-1.7-15.7-1.7-10.5,8.7c5.2,10.5,45.4,73.3,41.9,78.5
			c-3.5,5.2-58.5-45.4-65.4-36.6c-7,8.7,5.2,24.4,31.4,40.1s39.3,54.1,43.6,65.4c4.4,11.3,16.6,40.1,55.8,34"/>
		<path class="st2" d="M244.8,179.2c-7.2-2-30.1-4.1-62.2,11.3c-19.6,9.4-26,14.6-28.1,17.3c0.7-2.4,1.1-5.8-1.5-7.2
			c0.5-1.3,4.9-12.4,19.8-18.8c0,0,3.2,0.9,3.9-1.5s-2.5-3.3-4.5,0.5c0,0-16,7.7-20.2,19.5c-0.3-0.1-0.5-0.1-0.8-0.2
			c2.6-12.3-7.2-27.2-7.2-27.2c0.3-4.3-2.9-5.2-3.6-2.7c-0.7,2.4,2.5,3.3,2.5,3.3c10,14.1,7.2,26.5,7.2,26.5
			c-5.4,0.1-3.1,8.5-3.1,8.5s-21.8-40-51.9-53.6c-30.1-13.6-35.6-3-34.9,0.7c0.7,3.7,5.7,13.8,14,21.3c0,0-3.3,8.6,0.3,11.4
			c3.6,2.7,3.4,3.5,3.5,6.2s0.3,11.4,9.6,12.2c9.3,0.9,17.3,1.8,18.7,3.1c1.4,1.3-12.6,1.7-15.8,6.9s-9.8,16.4,5.1,34.4
			s16.3,19.3,17.8,23.2c1.5,3.9,7.9,9.1,12.4,5.2c4.6-3.9,9.7-12.9,11-17.8c1.4-4.8,2.6-1.5,2.6-1.5s-1.7,18.6,1.6,22.2
			s7.5,1.2,12.4-0.9c4.9-2.1,10.3-5.8,15.1-10.5s19-12.1,22.5-15.4c3.5-3.4,10.8-10.9,2.8-19.2c-5.4-5.5-8.2-7.7-9.5-8.5
			c3.5,1.8,15.5,7.5,19.6,3.5c4.8-4.7,8.6-2.8,14-16c0,0,2.2-4.6,8.1-7.3s9.5-6,14.2-13.4C245.2,187.1,252,181.2,244.8,179.2z"/>
		<path class="st1" d="M236.9,173.1c-7.2-2-30.1-4.1-62.2,11.3c-19.6,9.4-26,14.6-28.1,17.3c0.7-2.4,1.1-5.8-1.5-7.2
			c0.5-1.3,4.9-12.4,19.8-18.8c0,0,3.2,0.9,3.9-1.5c0.7-2.4-2.5-3.3-4.5,0.5c0,0-16,7.7-20.2,19.5c-0.3-0.1-0.5-0.1-0.8-0.2
			c2.6-12.3-7.2-27.2-7.2-27.2c0.3-4.3-2.9-5.2-3.6-2.7c-0.7,2.4,2.5,3.3,2.5,3.3c10,14.1,7.2,26.5,7.2,26.5
			c-5.4,0.1-3.1,8.5-3.1,8.5s-21.8-40-51.9-53.6c-30.1-13.6-35.6-3-34.9,0.7c0.7,3.7,5.7,13.8,14,21.3c0,0-3.3,8.6,0.3,11.4
			c3.6,2.7,3.4,3.5,3.5,6.2s0.3,11.4,9.6,12.2c9.3,0.9,17.3,1.8,18.7,3.1c1.4,1.3-12.6,1.7-15.8,6.9S73,226.7,88,244.7
			s16.3,19.3,17.8,23.2c1.5,3.9,7.9,9.1,12.4,5.2c4.6-3.9,9.7-12.9,11-17.8c1.4-4.8,2.6-1.5,2.6-1.5s-1.7,18.6,1.6,22.2
			s7.5,1.2,12.4-0.9s10.3-5.8,15.1-10.5s19-12.1,22.5-15.4c3.5-3.4,10.8-10.9,2.8-19.2c-5.4-5.5-8.2-7.7-9.5-8.5
			c3.5,1.8,15.5,7.5,19.6,3.5c4.8-4.7,8.6-2.8,14-16c0,0,2.2-4.6,8.1-7.3s9.5-6,14.2-13.4C237.3,181,244.2,175.1,236.9,173.1z"/>
	</g>
	<g>
		<path class="st3" d="M439.2,195.6C439.2,195.7,439.1,195.7,439.2,195.6l-0.1,0.4c0,0,0,0.1,0,0.2v0.3c-0.1,0.1-0.1,0.2-0.1,0.3
			c0,0.1,0,0.2-0.1,0.3v0.3c-0.1,0.1-0.1,0.2-0.1,0.2l-0.2,0.3c0,0.1,0,0.2-0.1,0.3c0,0.1-0.1,0.2-0.1,0.3l-0.2,0.3
			c0,0-0.1,0.1-0.1,0.2c-0.1,0.1-0.2,0.1-0.2,0.2c-0.1,0.1-0.1,0.2-0.2,0.2c0,0.1-0.1,0.2-0.2,0.3c-0.1,0-0.1,0.1-0.2,0.2
			c-0.1,0-0.1,0.1-0.2,0.2c-0.1,0-0.2,0.1-0.2,0.2h-0.1c0,0.1-0.1,0.1-0.1,0.1c-0.2,0.2-0.4,0.3-0.7,0.4c-0.3,0.1-0.4,0.3-0.7,0.3
			h-0.1c-0.3,0.1-0.5,0.2-0.8,0.2h-0.2c-0.2,0.1-0.4,0.1-0.7,0.1c-0.2,0-0.4,0-0.6,0l-0.1-0.1c-0.2,0-0.3,0-0.4,0
			c-0.1-0.1-0.1-0.1-0.2-0.1c-0.2,0-0.3-0.1-0.4-0.1c0,0-0.1-0.1-0.2-0.1c-0.1,0-0.2-0.1-0.3-0.2c-0.1,0-0.2,0-0.3-0.1
			c-0.1,0-0.2-0.1-0.3-0.2c-0.1,0-0.2,0-0.2-0.1c-0.2-0.1-0.3-0.1-0.3-0.2c0-0.1-0.1-0.1-0.2-0.2c-0.1-0.1-0.3-0.2-0.3-0.3
			c-0.1,0-0.1-0.1-0.1-0.1c-0.2-0.1-0.3-0.3-0.3-0.3v-0.1L397,156.1v39.5c0,2.9-2.4,5.2-5.2,5.2c-2.9,0-5.2-2.3-5.2-5.2v-54.8v-0.1
			c0-0.1,0-0.2,0-0.3c0.1,0,0.1-0.1,0.1-0.2V140c0-0.1,0-0.2,0.1-0.3v-0.3c0.1-0.1,0.1-0.2,0.1-0.3c0-0.1,0.1-0.2,0.1-0.2
			c0-0.1,0.1-0.2,0.1-0.3l0.2-0.3c0-0.1,0-0.2,0.1-0.3c0-0.1,0.1-0.2,0.2-0.3c0,0,0-0.1,0.1-0.2l0.2-0.2c0-0.1,0.1-0.2,0.1-0.2
			l0.3-0.3c0,0,0.1-0.1,0.2-0.2l0.2-0.2c0,0,0.1-0.1,0.2-0.2h0.1c0-0.1,0.1-0.1,0.1-0.1c0.1-0.1,0.2-0.2,0.3-0.2
			c0.1-0.1,0.2-0.1,0.2-0.2c0.1,0,0.2-0.1,0.3-0.1c0.1-0.1,0.2-0.1,0.3-0.1l0.3-0.2c0.1,0,0.1,0,0.2-0.1c0.1,0,0.2,0,0.3-0.1h0.3
			c0.1-0.1,0.2-0.1,0.3-0.1h0.3c0.1-0.1,0.2-0.1,0.3-0.1h0.3c0.1,0,0.1,0,0.2,0h0.1c0.1,0,0.2,0,0.3,0h0.3c0.1,0.1,0.2,0.1,0.3,0.1
			h0.3c0.1,0.1,0.2,0.1,0.2,0.1l0.3,0.1c0,0,0.1,0.1,0.2,0.1c0.1,0,0.2,0.1,0.3,0.1c0.1,0,0.2,0.1,0.3,0.1l0.2,0.2
			c0.1,0,0.2,0.1,0.3,0.1c0.1,0.1,0.2,0.1,0.2,0.2c0.1,0,0.2,0.1,0.3,0.2c0.1,0,0.1,0.1,0.2,0.1l0.2,0.2c0.1,0.1,0.2,0.2,0.2,0.2
			l0.2,0.2c0.1,0.1,0.2,0.2,0.2,0.3c0.1,0,0.1,0,0.1,0.1l32.9,42.7v-39.5c0-2.9,2.3-5.2,5.2-5.2c2.8,0,5.2,2.3,5.2,5.2V195.6z"/>
		<path class="st3" d="M459.3,173.5v17h24.6c2.8,0,5.2,2.3,5.2,5.2c0,2.8-2.3,5.1-5.2,5.1h-29.8c-2.8,0-5.1-2.2-5.1-5.1v-55
			c0-2.8,2.2-5.2,5.1-5.2h29.8c2.8,0,5.2,2.3,5.2,5.2c0,2.8-2.3,5.2-5.2,5.2h-24.6v17.5h24.6c2.8,0,5.2,2.2,5.2,5.2
			c0,2.8-2.3,5.1-5.2,5.1H459.3z"/>
		<path class="st3" d="M522,200.9c-11.8,0-24.3-8-24.3-22.7v-37.3c0-2.9,2.3-5.2,5.2-5.2c2.9,0,5.3,2.3,5.3,5.2v37.3
			c0,7.9,7,12,13.8,12c6.9,0,13.8-4.1,13.8-12v-37.3c0-2.9,2.4-5.2,5.3-5.2s5.2,2.3,5.2,5.2v37.3C546.5,192.9,533.9,200.9,522,200.9
			z"/>
		<path class="st3" d="M597.2,200.2c-0.8,0.4-1.5,0.6-2.4,0.6c-1.8,0-3.6-0.9-4.5-2.8l-12.6-24h-10.9v21.6c0,2.8-2.2,5.1-5.1,5.1
			c-2.8,0-5.1-2.2-5.1-5.1v-54.5c0-2.7,2.2-4.9,4.8-5.1v-0.5h19.6c10.2,0,18.8,9,18.8,19.8c0,7.5-4.8,14.1-11.6,17l11.1,21
			C600.7,195.8,599.7,198.9,597.2,200.2z M566.8,163.9h13.6c5,0,9.4-4,9.4-8.6c0-5.1-4.1-9.5-8.7-9.5h-14.3V163.9z"/>
		<path class="st3" d="M638.1,200.7c-18.1,0-32.7-14.6-32.7-32.7c0-18,14.6-32.6,32.7-32.6c18,0,32.6,14.6,32.6,32.7
			C670.7,186.1,656.1,200.7,638.1,200.7z M638.1,145.8c-12.3,0-22.3,10-22.3,22.2c0,12.3,10,22.3,22.3,22.3
			c12.2,0,22.2-10,22.2-22.3C660.3,155.8,650.3,145.8,638.1,145.8z"/>
		<path class="st4" d="M429.8,234c0,10.1-8.9,18.8-19.6,18.8h-13.6v21.6c0,2.8-2.2,5.1-5.1,5.1c-2.8,0-5.1-2.2-5.1-5.1v-54.6
			c0-2.7,2.2-4.9,4.8-5.1v-0.5h19.6C421.1,214.2,429.8,223.3,429.8,234z M419.6,234c0-5-4.1-9.5-8.7-9.5h-14.3v18.1h13.6
			C415.2,242.6,419.6,238.6,419.6,234z"/>
		<path class="st4" d="M480.8,262.3c-0.6,10.1-9.7,15.9-17.9,17.1c-1.4,0.2-2.8,0.3-4.2,0.3c-8.4,0-16.8-3.5-21.9-9.6
			c-1.8-2.2-1.5-5.3,0.6-7.2c2.2-1.8,5.3-1.5,7.1,0.6c3.8,4.4,10.6,6.8,16.9,5.8c4.2-0.6,8.9-3.2,9.1-7.6c0.3-3.9-2.8-7.5-7-8.4
			c-1.7-0.4-3.7-0.5-5.7-0.6c-4.5-0.3-9.5-0.5-14.1-3.7c-6.3-4.3-9.4-12.1-7.5-19c2.1-7.5,8.9-13.2,17.1-14.5
			c7.9-1.1,16.3,1.1,22.4,5.8c2.2,1.7,2.6,5,0.9,7.2c-1.7,2.1-5,2.6-7.2,0.9c-3.9-3.1-9.5-4.6-14.7-3.8c-4,0.6-7.7,3.4-8.6,7.1
			c-0.9,3,1,6.2,3.4,7.8c2.2,1.5,5.2,1.7,8.8,1.9c2.4,0.2,4.8,0.3,7.4,0.9C474.9,245.3,481.3,253.6,480.8,262.3z"/>
		<path class="st4" d="M496,279.6c-2.8,0-5.2-2.3-5.2-5.2v-54.8c0-2.9,2.3-5.2,5.2-5.2c2.9,0,5.2,2.3,5.2,5.2v54.8
			C501.2,277.3,498.9,279.6,496,279.6z"/>
		<path class="st4" d="M542.2,279.7c-18,0-32.6-14.7-32.6-32.7s14.6-32.6,32.6-32.6c8.1,0,15.8,2.9,21.8,8.3
			c2.2,1.9,2.3,5.2,0.3,7.3c-1.9,2.1-5.2,2.2-7.2,0.3c-4.1-3.7-9.5-5.7-15-5.7c-12.3,0-22.3,10-22.3,22.3s10,22.3,22.3,22.3
			c5.7,0,11.1-2.1,15.2-5.9c2.1-2,5.3-1.8,7.3,0.3c1.9,2.1,1.8,5.3-0.3,7.3C558.3,276.5,550.4,279.7,542.2,279.7z"/>
		<path class="st4" d="M604.1,279.6c-18.1,0-32.7-14.6-32.7-32.7c0-18,14.6-32.6,32.7-32.6c18,0,32.6,14.6,32.6,32.7
			C636.7,265,622,279.6,604.1,279.6z M604.1,224.7c-12.3,0-22.3,10-22.3,22.2c0,12.3,10,22.3,22.3,22.3c12.2,0,22.2-10,22.2-22.3
			C626.3,234.7,616.3,224.7,604.1,224.7z"/>
		<path class="st3" d="M696.9,279.4c-2.5,1.3-5.6,0.3-6.9-2.2l-6.7-13.4h-0.1h-29.4c-0.3,0-0.4,0-0.6-0.1L647,277
			c-0.9,1.9-2.8,3-4.6,3c-0.8,0-1.5-0.2-2.1-0.5c-2.6-1.2-3.7-4.2-2.5-6.8l25.1-54.3c0.9-1.8,2.6-2.9,4.6-3h0.1c2,0,3.7,1.1,4.6,2.8
			l27.1,54.3C700.5,275.1,699.5,278.2,696.9,279.4z M678.2,253.5l-10.5-21l-9.7,21H678.2z"/>
		<path class="st3" d="M747.1,279.1c-0.8,0.4-1.5,0.6-2.4,0.6c-1.8,0-3.6-0.9-4.5-2.8l-12.6-24h-10.9v21.6c0,2.8-2.2,5.1-5.1,5.1
			c-2.8,0-5.1-2.2-5.1-5.1V220c0-2.7,2.2-4.9,4.8-5.1v-0.5h19.6c10.2,0,18.8,9,18.8,19.8c0,7.5-4.8,14.1-11.6,17l11.1,21
			C750.5,274.7,749.6,277.8,747.1,279.1z M716.7,242.8h13.6c5,0,9.4-4,9.4-8.6c0-5.1-4.1-9.5-8.7-9.5h-14.3V242.8z"/>
		<path class="st3" d="M801.5,219.8c0,2.9-2.3,5.2-5.2,5.2h-14.8v49.6c0,2.9-2.3,5.2-5.2,5.2c-2.9,0-5.2-2.3-5.2-5.2V225h-14.7
			c-2.8,0-5.2-2.3-5.2-5.2c0-2.8,2.3-5.2,5.2-5.2h39.9C799.2,214.6,801.5,216.9,801.5,219.8z"/>
		<path class="st3" d="M817.2,252.4v17h24.6c2.8,0,5.2,2.3,5.2,5.2c0,2.8-2.3,5.1-5.2,5.1h-29.8c-2.8,0-5.1-2.2-5.1-5.1v-55
			c0-2.8,2.2-5.2,5.1-5.2h29.8c2.8,0,5.2,2.3,5.2,5.2c0,2.8-2.3,5.2-5.2,5.2h-24.6v17.5h24.6c2.8,0,5.2,2.2,5.2,5.2
			c0,2.8-2.3,5.1-5.2,5.1H817.2z"/>
	</g>
</g>
</svg>
